<mxfile host="app.diagrams.net" agent="Mozilla/5.0 (Windows NT 10.0; Win64; x64; rv:136.0) Gecko/20100101 Firefox/136.0" version="26.1.1">
  <diagram name="Page-1" id="6NJ-20QQG3fvARiA23z1">
    <mxGraphModel dx="954" dy="567" grid="1" gridSize="10" guides="1" tooltips="1" connect="1" arrows="1" fold="1" page="1" pageScale="1" pageWidth="850" pageHeight="1100" math="0" shadow="0">
      <root>
        <mxCell id="0" />
        <mxCell id="1" parent="0" />
        <mxCell id="1rw6VjLCdA-qJpvYcRYI-9" value="" style="verticalLabelPosition=bottom;shadow=0;dashed=0;align=center;html=1;verticalAlign=top;shape=mxgraph.electrical.abstract.dac;fontFamily=Modern;fontSource=https%3A%2F%2Fsourceforge.net%2Fprojects%2Fcm-unicode%2F;" parent="1" vertex="1">
          <mxGeometry x="310" y="339.08" width="40" height="30" as="geometry" />
        </mxCell>
        <mxCell id="1rw6VjLCdA-qJpvYcRYI-10" style="edgeStyle=orthogonalEdgeStyle;rounded=0;orthogonalLoop=1;jettySize=auto;html=1;entryX=0.5;entryY=0;entryDx=0;entryDy=0;endArrow=none;startFill=0;fontFamily=Modern;fontSource=https%3A%2F%2Fsourceforge.net%2Fprojects%2Fcm-unicode%2F;" parent="1" source="1rw6VjLCdA-qJpvYcRYI-11" target="1rw6VjLCdA-qJpvYcRYI-16" edge="1">
          <mxGeometry relative="1" as="geometry">
            <Array as="points">
              <mxPoint x="405" y="354.08" />
            </Array>
          </mxGeometry>
        </mxCell>
        <mxCell id="1rw6VjLCdA-qJpvYcRYI-11" value="&lt;font data-font-src=&quot;https://sourceforge.net/projects/cm-unicode/&quot;&gt;DAC&lt;/font&gt;" style="text;html=1;align=center;verticalAlign=middle;resizable=0;points=[];autosize=1;strokeColor=none;fillColor=none;fontFamily=Modern;fontSource=https%3A%2F%2Fsourceforge.net%2Fprojects%2Fcm-unicode%2F;" parent="1" vertex="1">
          <mxGeometry x="300" y="339.58" width="50" height="30" as="geometry" />
        </mxCell>
        <mxCell id="1rw6VjLCdA-qJpvYcRYI-12" style="edgeStyle=orthogonalEdgeStyle;rounded=0;orthogonalLoop=1;jettySize=auto;html=1;entryX=0.5;entryY=1;entryDx=0;entryDy=0;endArrow=none;startFill=0;fontFamily=Modern;fontSource=https%3A%2F%2Fsourceforge.net%2Fprojects%2Fcm-unicode%2F;" parent="1" source="1rw6VjLCdA-qJpvYcRYI-13" target="1rw6VjLCdA-qJpvYcRYI-16" edge="1">
          <mxGeometry relative="1" as="geometry">
            <Array as="points">
              <mxPoint x="405" y="394.08" />
            </Array>
          </mxGeometry>
        </mxCell>
        <mxCell id="1rw6VjLCdA-qJpvYcRYI-13" value="" style="verticalLabelPosition=bottom;shadow=0;dashed=0;align=center;html=1;verticalAlign=top;shape=mxgraph.electrical.abstract.dac;rotation=-180;fontFamily=Modern;fontSource=https%3A%2F%2Fsourceforge.net%2Fprojects%2Fcm-unicode%2F;" parent="1" vertex="1">
          <mxGeometry x="310" y="379.08" width="40" height="30" as="geometry" />
        </mxCell>
        <mxCell id="1rw6VjLCdA-qJpvYcRYI-14" value="&lt;font&gt;ADC&lt;/font&gt;" style="text;html=1;align=center;verticalAlign=middle;resizable=0;points=[];autosize=1;strokeColor=none;fillColor=none;fontFamily=Modern;fontSource=https%3A%2F%2Fsourceforge.net%2Fprojects%2Fcm-unicode%2F;" parent="1" vertex="1">
          <mxGeometry x="310" y="379.08" width="50" height="30" as="geometry" />
        </mxCell>
        <mxCell id="1rw6VjLCdA-qJpvYcRYI-15" style="edgeStyle=orthogonalEdgeStyle;rounded=0;orthogonalLoop=1;jettySize=auto;html=1;endArrow=none;startFill=0;fontFamily=Modern;fontSource=https%3A%2F%2Fsourceforge.net%2Fprojects%2Fcm-unicode%2F;" parent="1" source="1rw6VjLCdA-qJpvYcRYI-16" edge="1">
          <mxGeometry relative="1" as="geometry">
            <mxPoint x="470" y="374.08" as="targetPoint" />
          </mxGeometry>
        </mxCell>
        <mxCell id="1rw6VjLCdA-qJpvYcRYI-16" value="RF chain" style="rounded=1;whiteSpace=wrap;html=1;fontFamily=Modern;fontSource=https%3A%2F%2Fsourceforge.net%2Fprojects%2Fcm-unicode%2F;" parent="1" vertex="1">
          <mxGeometry x="370" y="361.08" width="70" height="26" as="geometry" />
        </mxCell>
        <mxCell id="1rw6VjLCdA-qJpvYcRYI-24" value="&lt;div&gt;Baseband Proceesing&lt;/div&gt;" style="rounded=1;whiteSpace=wrap;html=1;fontFamily=Modern;fontSource=https%3A%2F%2Fsourceforge.net%2Fprojects%2Fcm-unicode%2F;" parent="1" vertex="1">
          <mxGeometry x="162.5" y="306.03999999999996" width="125" height="140" as="geometry" />
        </mxCell>
        <mxCell id="1rw6VjLCdA-qJpvYcRYI-45" value="Digital" style="text;html=1;align=center;verticalAlign=middle;resizable=0;points=[];autosize=1;strokeColor=none;fillColor=none;fontFamily=Modern;fontSource=https%3A%2F%2Fsourceforge.net%2Fprojects%2Fcm-unicode%2F;" parent="1" vertex="1">
          <mxGeometry x="195" y="220" width="60" height="30" as="geometry" />
        </mxCell>
        <mxCell id="1rw6VjLCdA-qJpvYcRYI-46" value="Mixed &lt;br&gt;Signal" style="text;html=1;align=center;verticalAlign=middle;resizable=0;points=[];autosize=1;strokeColor=none;fillColor=none;fontFamily=Modern;fontSource=https%3A%2F%2Fsourceforge.net%2Fprojects%2Fcm-unicode%2F;" parent="1" vertex="1">
          <mxGeometry x="305" y="210" width="50" height="40" as="geometry" />
        </mxCell>
        <mxCell id="1rw6VjLCdA-qJpvYcRYI-47" value="Analog" style="text;html=1;align=center;verticalAlign=middle;resizable=0;points=[];autosize=1;strokeColor=none;fillColor=none;fontFamily=Modern;fontSource=https%3A%2F%2Fsourceforge.net%2Fprojects%2Fcm-unicode%2F;" parent="1" vertex="1">
          <mxGeometry x="526.52" y="220" width="60" height="30" as="geometry" />
        </mxCell>
        <mxCell id="1rw6VjLCdA-qJpvYcRYI-48" style="edgeStyle=orthogonalEdgeStyle;rounded=0;orthogonalLoop=1;jettySize=auto;html=1;endArrow=none;startFill=1;startArrow=classic;entryX=1;entryY=0.343;entryDx=0;entryDy=0;entryPerimeter=0;fontFamily=Modern;fontSource=https%3A%2F%2Fsourceforge.net%2Fprojects%2Fcm-unicode%2F;" parent="1" source="1rw6VjLCdA-qJpvYcRYI-9" target="1rw6VjLCdA-qJpvYcRYI-24" edge="1">
          <mxGeometry relative="1" as="geometry">
            <mxPoint x="290" y="354.08" as="targetPoint" />
          </mxGeometry>
        </mxCell>
        <mxCell id="1rw6VjLCdA-qJpvYcRYI-73" style="edgeStyle=orthogonalEdgeStyle;rounded=0;orthogonalLoop=1;jettySize=auto;html=1;entryX=0;entryY=0.5;entryDx=0;entryDy=0;endArrow=none;startFill=0;fontFamily=Modern;fontSource=https%3A%2F%2Fsourceforge.net%2Fprojects%2Fcm-unicode%2F;" parent="1" source="1rw6VjLCdA-qJpvYcRYI-57" target="1rw6VjLCdA-qJpvYcRYI-63" edge="1">
          <mxGeometry relative="1" as="geometry">
            <Array as="points">
              <mxPoint x="475" y="295" />
            </Array>
          </mxGeometry>
        </mxCell>
        <mxCell id="1rw6VjLCdA-qJpvYcRYI-83" style="edgeStyle=orthogonalEdgeStyle;rounded=0;orthogonalLoop=1;jettySize=auto;html=1;endArrow=none;startFill=0;fontFamily=Modern;fontSource=https%3A%2F%2Fsourceforge.net%2Fprojects%2Fcm-unicode%2F;" parent="1" source="1rw6VjLCdA-qJpvYcRYI-57" edge="1">
          <mxGeometry relative="1" as="geometry">
            <mxPoint x="540" y="355" as="targetPoint" />
            <Array as="points">
              <mxPoint x="475" y="355" />
            </Array>
          </mxGeometry>
        </mxCell>
        <mxCell id="1rw6VjLCdA-qJpvYcRYI-90" style="edgeStyle=orthogonalEdgeStyle;rounded=0;orthogonalLoop=1;jettySize=auto;html=1;entryX=0;entryY=0.5;entryDx=0;entryDy=0;endArrow=none;startFill=0;exitX=0.5;exitY=1;exitDx=0;exitDy=0;fontFamily=Modern;fontSource=https%3A%2F%2Fsourceforge.net%2Fprojects%2Fcm-unicode%2F;" parent="1" source="1rw6VjLCdA-qJpvYcRYI-57" target="1rw6VjLCdA-qJpvYcRYI-85" edge="1">
          <mxGeometry relative="1" as="geometry">
            <mxPoint x="475" y="378.96" as="sourcePoint" />
            <Array as="points">
              <mxPoint x="475" y="464" />
            </Array>
          </mxGeometry>
        </mxCell>
        <mxCell id="1rw6VjLCdA-qJpvYcRYI-57" value="" style="ellipse;whiteSpace=wrap;html=1;aspect=fixed;fillColor=#000000;fontFamily=Modern;fontSource=https%3A%2F%2Fsourceforge.net%2Fprojects%2Fcm-unicode%2F;" parent="1" vertex="1">
          <mxGeometry x="470" y="369.04" width="10" height="10" as="geometry" />
        </mxCell>
        <mxCell id="1rw6VjLCdA-qJpvYcRYI-76" value="" style="group;fontFamily=Modern;fontSource=https%3A%2F%2Fsourceforge.net%2Fprojects%2Fcm-unicode%2F;" parent="1" vertex="1" connectable="0">
          <mxGeometry x="540" y="280" width="33.039999999999964" height="31.04000000000002" as="geometry" />
        </mxCell>
        <mxCell id="1rw6VjLCdA-qJpvYcRYI-63" value="" style="ellipse;whiteSpace=wrap;html=1;aspect=fixed;fontFamily=Modern;fontSource=https%3A%2F%2Fsourceforge.net%2Fprojects%2Fcm-unicode%2F;" parent="1rw6VjLCdA-qJpvYcRYI-76" vertex="1">
          <mxGeometry width="30" height="30" as="geometry" />
        </mxCell>
        <mxCell id="1rw6VjLCdA-qJpvYcRYI-70" value="" style="group;fontFamily=Modern;fontSource=https%3A%2F%2Fsourceforge.net%2Fprojects%2Fcm-unicode%2F;" parent="1rw6VjLCdA-qJpvYcRYI-76" vertex="1" connectable="0">
          <mxGeometry y="0.004466094067254289" width="33.04" height="31.035533905932766" as="geometry" />
        </mxCell>
        <mxCell id="1rw6VjLCdA-qJpvYcRYI-71" value="" style="group;fontFamily=Modern;fontSource=https%3A%2F%2Fsourceforge.net%2Fprojects%2Fcm-unicode%2F;" parent="1rw6VjLCdA-qJpvYcRYI-70" vertex="1" connectable="0">
          <mxGeometry y="-3" width="33.04" height="33" as="geometry" />
        </mxCell>
        <mxCell id="1rw6VjLCdA-qJpvYcRYI-66" value="" style="endArrow=none;html=1;rounded=0;entryX=0.372;entryY=0.5;entryDx=0;entryDy=0;entryPerimeter=0;fontFamily=Modern;fontSource=https%3A%2F%2Fsourceforge.net%2Fprojects%2Fcm-unicode%2F;" parent="1rw6VjLCdA-qJpvYcRYI-71" target="1rw6VjLCdA-qJpvYcRYI-69" edge="1">
          <mxGeometry width="50" height="50" relative="1" as="geometry">
            <mxPoint y="33" as="sourcePoint" />
            <mxPoint x="31.937584931011052" y="1.1010804260482827" as="targetPoint" />
          </mxGeometry>
        </mxCell>
        <mxCell id="1rw6VjLCdA-qJpvYcRYI-69" value="" style="triangle;whiteSpace=wrap;html=1;rotation=-45;gradientColor=none;fillColor=#000000;fontFamily=Modern;fontSource=https%3A%2F%2Fsourceforge.net%2Fprojects%2Fcm-unicode%2F;" parent="1rw6VjLCdA-qJpvYcRYI-71" vertex="1">
          <mxGeometry x="26.614654109175877" y="1.1010804260482827" width="5.322930821835175" height="5.31648659565862" as="geometry" />
        </mxCell>
        <mxCell id="1rw6VjLCdA-qJpvYcRYI-77" value="" style="group;fontFamily=Modern;fontSource=https%3A%2F%2Fsourceforge.net%2Fprojects%2Fcm-unicode%2F;" parent="1" vertex="1" connectable="0">
          <mxGeometry x="540" y="340" width="33.039999999999964" height="31.04000000000002" as="geometry" />
        </mxCell>
        <mxCell id="1rw6VjLCdA-qJpvYcRYI-78" value="" style="ellipse;whiteSpace=wrap;html=1;aspect=fixed;fontFamily=Modern;fontSource=https%3A%2F%2Fsourceforge.net%2Fprojects%2Fcm-unicode%2F;" parent="1rw6VjLCdA-qJpvYcRYI-77" vertex="1">
          <mxGeometry width="30" height="30" as="geometry" />
        </mxCell>
        <mxCell id="1rw6VjLCdA-qJpvYcRYI-79" value="" style="group;fontFamily=Modern;fontSource=https%3A%2F%2Fsourceforge.net%2Fprojects%2Fcm-unicode%2F;" parent="1rw6VjLCdA-qJpvYcRYI-77" vertex="1" connectable="0">
          <mxGeometry y="0.004466094067254289" width="33.04" height="31.035533905932766" as="geometry" />
        </mxCell>
        <mxCell id="1rw6VjLCdA-qJpvYcRYI-80" value="" style="group;fontFamily=Modern;fontSource=https%3A%2F%2Fsourceforge.net%2Fprojects%2Fcm-unicode%2F;" parent="1rw6VjLCdA-qJpvYcRYI-79" vertex="1" connectable="0">
          <mxGeometry y="-3" width="33.04" height="33" as="geometry" />
        </mxCell>
        <mxCell id="1rw6VjLCdA-qJpvYcRYI-81" value="" style="endArrow=none;html=1;rounded=0;entryX=0.372;entryY=0.5;entryDx=0;entryDy=0;entryPerimeter=0;fontFamily=Modern;fontSource=https%3A%2F%2Fsourceforge.net%2Fprojects%2Fcm-unicode%2F;" parent="1rw6VjLCdA-qJpvYcRYI-80" target="1rw6VjLCdA-qJpvYcRYI-82" edge="1">
          <mxGeometry width="50" height="50" relative="1" as="geometry">
            <mxPoint y="33" as="sourcePoint" />
            <mxPoint x="31.937584931011052" y="1.1010804260482827" as="targetPoint" />
          </mxGeometry>
        </mxCell>
        <mxCell id="1rw6VjLCdA-qJpvYcRYI-82" value="" style="triangle;whiteSpace=wrap;html=1;rotation=-45;gradientColor=none;fillColor=#000000;fontFamily=Modern;fontSource=https%3A%2F%2Fsourceforge.net%2Fprojects%2Fcm-unicode%2F;" parent="1rw6VjLCdA-qJpvYcRYI-80" vertex="1">
          <mxGeometry x="26.614654109175877" y="1.1010804260482827" width="5.322930821835175" height="5.31648659565862" as="geometry" />
        </mxCell>
        <mxCell id="1rw6VjLCdA-qJpvYcRYI-84" value="" style="group;fontFamily=Modern;fontSource=https%3A%2F%2Fsourceforge.net%2Fprojects%2Fcm-unicode%2F;" parent="1" vertex="1" connectable="0">
          <mxGeometry x="540" y="448.96" width="33.039999999999964" height="31.04000000000002" as="geometry" />
        </mxCell>
        <mxCell id="1rw6VjLCdA-qJpvYcRYI-85" value="" style="ellipse;whiteSpace=wrap;html=1;aspect=fixed;fontFamily=Modern;fontSource=https%3A%2F%2Fsourceforge.net%2Fprojects%2Fcm-unicode%2F;" parent="1rw6VjLCdA-qJpvYcRYI-84" vertex="1">
          <mxGeometry width="30" height="30" as="geometry" />
        </mxCell>
        <mxCell id="1rw6VjLCdA-qJpvYcRYI-86" value="" style="group;fontFamily=Modern;fontSource=https%3A%2F%2Fsourceforge.net%2Fprojects%2Fcm-unicode%2F;" parent="1rw6VjLCdA-qJpvYcRYI-84" vertex="1" connectable="0">
          <mxGeometry y="0.004466094067254289" width="33.04" height="31.035533905932766" as="geometry" />
        </mxCell>
        <mxCell id="1rw6VjLCdA-qJpvYcRYI-87" value="" style="group;fontFamily=Modern;fontSource=https%3A%2F%2Fsourceforge.net%2Fprojects%2Fcm-unicode%2F;" parent="1rw6VjLCdA-qJpvYcRYI-86" vertex="1" connectable="0">
          <mxGeometry y="-3" width="33.04" height="33" as="geometry" />
        </mxCell>
        <mxCell id="1rw6VjLCdA-qJpvYcRYI-88" value="" style="endArrow=none;html=1;rounded=0;entryX=0.372;entryY=0.5;entryDx=0;entryDy=0;entryPerimeter=0;fontFamily=Modern;fontSource=https%3A%2F%2Fsourceforge.net%2Fprojects%2Fcm-unicode%2F;" parent="1rw6VjLCdA-qJpvYcRYI-87" target="1rw6VjLCdA-qJpvYcRYI-89" edge="1">
          <mxGeometry width="50" height="50" relative="1" as="geometry">
            <mxPoint y="33" as="sourcePoint" />
            <mxPoint x="31.937584931011052" y="1.1010804260482827" as="targetPoint" />
          </mxGeometry>
        </mxCell>
        <mxCell id="1rw6VjLCdA-qJpvYcRYI-89" value="" style="triangle;whiteSpace=wrap;html=1;rotation=-45;gradientColor=none;fillColor=#000000;fontFamily=Modern;fontSource=https%3A%2F%2Fsourceforge.net%2Fprojects%2Fcm-unicode%2F;" parent="1rw6VjLCdA-qJpvYcRYI-87" vertex="1">
          <mxGeometry x="26.614654109175877" y="1.1010804260482827" width="5.322930821835175" height="5.31648659565862" as="geometry" />
        </mxCell>
        <mxCell id="1rw6VjLCdA-qJpvYcRYI-91" value="" style="shape=image;html=1;verticalAlign=top;verticalLabelPosition=bottom;labelBackgroundColor=#ffffff;imageAspect=0;aspect=fixed;image=https://cdn4.iconfinder.com/data/icons/developer-set-3/128/other-128.png;rotation=90;fontFamily=Modern;fontSource=https%3A%2F%2Fsourceforge.net%2Fprojects%2Fcm-unicode%2F;" parent="1" vertex="1">
          <mxGeometry x="580" y="408.96" width="18" height="18" as="geometry" />
        </mxCell>
        <mxCell id="1rw6VjLCdA-qJpvYcRYI-100" style="edgeStyle=orthogonalEdgeStyle;rounded=0;orthogonalLoop=1;jettySize=auto;html=1;endArrow=none;startFill=0;fontFamily=Modern;fontSource=https%3A%2F%2Fsourceforge.net%2Fprojects%2Fcm-unicode%2F;" parent="1" source="1rw6VjLCdA-qJpvYcRYI-92" edge="1">
          <mxGeometry relative="1" as="geometry">
            <mxPoint x="700" y="295" as="targetPoint" />
          </mxGeometry>
        </mxCell>
        <mxCell id="1rw6VjLCdA-qJpvYcRYI-92" value="" style="triangle;whiteSpace=wrap;html=1;fontFamily=Modern;fontSource=https%3A%2F%2Fsourceforge.net%2Fprojects%2Fcm-unicode%2F;" parent="1" vertex="1">
          <mxGeometry x="610" y="280" width="30" height="30" as="geometry" />
        </mxCell>
        <mxCell id="1rw6VjLCdA-qJpvYcRYI-102" style="edgeStyle=orthogonalEdgeStyle;rounded=0;orthogonalLoop=1;jettySize=auto;html=1;exitX=1;exitY=0.5;exitDx=0;exitDy=0;endArrow=none;startFill=0;fontFamily=Modern;fontSource=https%3A%2F%2Fsourceforge.net%2Fprojects%2Fcm-unicode%2F;" parent="1" source="1rw6VjLCdA-qJpvYcRYI-93" edge="1">
          <mxGeometry relative="1" as="geometry">
            <mxPoint x="700" y="355.03846153846155" as="targetPoint" />
          </mxGeometry>
        </mxCell>
        <mxCell id="1rw6VjLCdA-qJpvYcRYI-93" value="" style="triangle;whiteSpace=wrap;html=1;fontFamily=Modern;fontSource=https%3A%2F%2Fsourceforge.net%2Fprojects%2Fcm-unicode%2F;" parent="1" vertex="1">
          <mxGeometry x="610" y="340" width="30" height="30" as="geometry" />
        </mxCell>
        <mxCell id="1rw6VjLCdA-qJpvYcRYI-103" style="edgeStyle=orthogonalEdgeStyle;rounded=0;orthogonalLoop=1;jettySize=auto;html=1;exitX=1;exitY=0.5;exitDx=0;exitDy=0;endArrow=none;startFill=0;fontFamily=Modern;fontSource=https%3A%2F%2Fsourceforge.net%2Fprojects%2Fcm-unicode%2F;" parent="1" source="1rw6VjLCdA-qJpvYcRYI-94" edge="1">
          <mxGeometry relative="1" as="geometry">
            <mxPoint x="700" y="463.9984615384615" as="targetPoint" />
          </mxGeometry>
        </mxCell>
        <mxCell id="1rw6VjLCdA-qJpvYcRYI-94" value="" style="triangle;whiteSpace=wrap;html=1;fontFamily=Modern;fontSource=https%3A%2F%2Fsourceforge.net%2Fprojects%2Fcm-unicode%2F;" parent="1" vertex="1">
          <mxGeometry x="610" y="448.96" width="30" height="30" as="geometry" />
        </mxCell>
        <mxCell id="1rw6VjLCdA-qJpvYcRYI-95" style="edgeStyle=orthogonalEdgeStyle;rounded=0;orthogonalLoop=1;jettySize=auto;html=1;exitX=1;exitY=0.5;exitDx=0;exitDy=0;entryX=0;entryY=0.5;entryDx=0;entryDy=0;endArrow=none;startFill=0;fontFamily=Modern;fontSource=https%3A%2F%2Fsourceforge.net%2Fprojects%2Fcm-unicode%2F;" parent="1" source="1rw6VjLCdA-qJpvYcRYI-85" target="1rw6VjLCdA-qJpvYcRYI-94" edge="1">
          <mxGeometry relative="1" as="geometry" />
        </mxCell>
        <mxCell id="1rw6VjLCdA-qJpvYcRYI-96" style="edgeStyle=orthogonalEdgeStyle;rounded=0;orthogonalLoop=1;jettySize=auto;html=1;exitX=1;exitY=0.5;exitDx=0;exitDy=0;entryX=0;entryY=0.5;entryDx=0;entryDy=0;endArrow=none;startFill=0;fontFamily=Modern;fontSource=https%3A%2F%2Fsourceforge.net%2Fprojects%2Fcm-unicode%2F;" parent="1" source="1rw6VjLCdA-qJpvYcRYI-78" target="1rw6VjLCdA-qJpvYcRYI-93" edge="1">
          <mxGeometry relative="1" as="geometry" />
        </mxCell>
        <mxCell id="1rw6VjLCdA-qJpvYcRYI-97" style="edgeStyle=orthogonalEdgeStyle;rounded=0;orthogonalLoop=1;jettySize=auto;html=1;exitX=1;exitY=0.5;exitDx=0;exitDy=0;entryX=0;entryY=0.5;entryDx=0;entryDy=0;endArrow=none;startFill=0;fontFamily=Modern;fontSource=https%3A%2F%2Fsourceforge.net%2Fprojects%2Fcm-unicode%2F;" parent="1" source="1rw6VjLCdA-qJpvYcRYI-63" target="1rw6VjLCdA-qJpvYcRYI-92" edge="1">
          <mxGeometry relative="1" as="geometry" />
        </mxCell>
        <mxCell id="1rw6VjLCdA-qJpvYcRYI-101" value="" style="verticalLabelPosition=bottom;shadow=0;dashed=0;align=center;html=1;verticalAlign=top;shape=mxgraph.electrical.radio.aerial_-_antenna_2;fontFamily=Modern;fontSource=https%3A%2F%2Fsourceforge.net%2Fprojects%2Fcm-unicode%2F;" parent="1" vertex="1">
          <mxGeometry x="690" y="260.5" width="20" height="35" as="geometry" />
        </mxCell>
        <mxCell id="1rw6VjLCdA-qJpvYcRYI-104" value="" style="verticalLabelPosition=bottom;shadow=0;dashed=0;align=center;html=1;verticalAlign=top;shape=mxgraph.electrical.radio.aerial_-_antenna_2;fontFamily=Modern;fontSource=https%3A%2F%2Fsourceforge.net%2Fprojects%2Fcm-unicode%2F;" parent="1" vertex="1">
          <mxGeometry x="690" y="320.5" width="20" height="35" as="geometry" />
        </mxCell>
        <mxCell id="1rw6VjLCdA-qJpvYcRYI-105" value="" style="verticalLabelPosition=bottom;shadow=0;dashed=0;align=center;html=1;verticalAlign=top;shape=mxgraph.electrical.radio.aerial_-_antenna_2;fontFamily=Modern;fontSource=https%3A%2F%2Fsourceforge.net%2Fprojects%2Fcm-unicode%2F;" parent="1" vertex="1">
          <mxGeometry x="690" y="429.46" width="20" height="35" as="geometry" />
        </mxCell>
        <mxCell id="1rw6VjLCdA-qJpvYcRYI-106" style="edgeStyle=orthogonalEdgeStyle;rounded=0;orthogonalLoop=1;jettySize=auto;html=1;entryX=1.002;entryY=0.628;entryDx=0;entryDy=0;entryPerimeter=0;fontFamily=Modern;fontSource=https%3A%2F%2Fsourceforge.net%2Fprojects%2Fcm-unicode%2F;" parent="1" source="1rw6VjLCdA-qJpvYcRYI-14" target="1rw6VjLCdA-qJpvYcRYI-24" edge="1">
          <mxGeometry relative="1" as="geometry" />
        </mxCell>
        <mxCell id="1rw6VjLCdA-qJpvYcRYI-107" value="" style="shape=crossbar;whiteSpace=wrap;html=1;rounded=1;fontFamily=Modern;fontSource=https%3A%2F%2Fsourceforge.net%2Fprojects%2Fcm-unicode%2F;" parent="1" vertex="1">
          <mxGeometry x="160" y="240" width="130" height="20" as="geometry" />
        </mxCell>
        <mxCell id="1rw6VjLCdA-qJpvYcRYI-111" value="" style="shape=crossbar;whiteSpace=wrap;html=1;rounded=1;fontFamily=Modern;fontSource=https%3A%2F%2Fsourceforge.net%2Fprojects%2Fcm-unicode%2F;" parent="1" vertex="1">
          <mxGeometry x="310" y="240" width="40" height="20.5" as="geometry" />
        </mxCell>
        <mxCell id="1rw6VjLCdA-qJpvYcRYI-112" value="" style="shape=crossbar;whiteSpace=wrap;html=1;rounded=1;fontFamily=Modern;fontSource=https%3A%2F%2Fsourceforge.net%2Fprojects%2Fcm-unicode%2F;" parent="1" vertex="1">
          <mxGeometry x="370" y="240.5" width="350" height="20" as="geometry" />
        </mxCell>
      </root>
    </mxGraphModel>
  </diagram>
</mxfile>
